<?xml version="1.0" ?><!DOCTYPE svg  PUBLIC '-//W3C//DTD SVG 1.1//EN'  'http://www.w3.org/Graphics/SVG/1.1/DTD/svg11.dtd'><svg enable-background="new 0 0 70 70" height="70px" id="Layer_1" version="1.1" viewBox="0 0 70 70" width="70px" xml:space="preserve" xmlns="http://www.w3.org/2000/svg" xmlns:xlink="http://www.w3.org/1999/xlink"><g id="Clean_URL"><path d="M49.126,34.986c-2.827,11.479-5.596,22.724-8.365,33.969c-0.167,0.021-0.333,0.042-0.5,0.062   c-3.236-11.295-6.472-22.589-9.75-34.031C36.764,34.986,42.811,34.986,49.126,34.986z" fill="#3C4252"/><path d="M37.802,69.011c-9.07-11.222-18.139-22.444-27.57-34.113c5.662,0,10.804-0.02,15.945,0.038   c0.412,0.005,1.063,0.471,1.191,0.859c3.619,11.006,7.185,22.03,10.76,33.051C38.019,68.9,37.911,68.955,37.802,69.011z" fill="#3C4252"/><path d="M52.758,34.983c5.544,0,10.864,0,16.694,0c-9.013,11.588-17.788,22.87-26.563,34.152   c-0.091-0.052-0.182-0.105-0.274-0.157C45.98,57.702,49.345,46.425,52.758,34.983z" fill="#3C4252"/><path d="M29.01,31.859c-2.796-4.928-5.361-9.449-8.055-14.199c5.475,0,10.612,0,16.085,0   C34.407,22.316,31.846,26.845,29.01,31.859z" fill="#3C4252"/><path d="M50.641,31.854c-2.809-4.944-5.376-9.463-8.063-14.194c5.435,0,10.57,0,16.097,0   C56.029,22.334,53.47,26.857,50.641,31.854z" fill="#3C4252"/><path d="M31.743,32.14c2.736-4.667,5.299-9.036,8.009-13.658c2.714,4.619,5.299,9.02,8.025,13.658   C42.392,32.14,37.32,32.14,31.743,32.14z" fill="#3C4252"/><path d="M18.078,18.495c2.789,4.753,5.319,9.064,8,13.633c-5.398,0-10.455,0-15.981,0   C12.748,27.599,15.29,23.256,18.078,18.495z" fill="#3C4252"/><path d="M69.601,32.22c-5.563,0-10.585,0-16.094,0c2.693-4.592,5.245-8.945,8.035-13.703   C64.266,23.148,66.821,27.492,69.601,32.22z" fill="#3C4252"/><path d="M16.524,0.865c0.549,1.173,1.068,2.361,1.665,3.509c0.186,0.358,0.532,0.703,0.891,0.889   c1.09,0.566,2.223,1.052,3.538,1.661c-1.213,0.56-2.304,0.998-3.323,1.564c-0.483,0.268-0.946,0.717-1.214,1.198   c-0.565,1.014-0.996,2.104-1.569,3.354c-0.56-1.215-0.998-2.311-1.567-3.334c-0.269-0.484-0.726-0.942-1.21-1.211   c-1.013-0.563-2.101-0.993-3.344-1.562c1.252-0.583,2.37-1.048,3.43-1.623c0.43-0.233,0.852-0.643,1.069-1.077   c0.545-1.091,0.972-2.242,1.446-3.369C16.397,0.865,16.461,0.865,16.524,0.865z" fill="#3076BC"/><path d="M34.028,15.563c-0.568-1.236-0.999-2.317-1.559-3.327c-0.266-0.48-0.711-0.938-1.187-1.207   c-1.008-0.57-2.089-1.01-3.336-1.596c1.261-0.598,2.377-1.079,3.442-1.657c0.405-0.219,0.793-0.603,1.01-1.008   c0.564-1.051,1.029-2.156,1.626-3.438c0.584,1.244,1.051,2.354,1.624,3.407c0.234,0.43,0.636,0.846,1.064,1.078   c1.045,0.565,2.15,1.018,3.433,1.61c-1.227,0.564-2.301,0.984-3.295,1.546c-0.506,0.286-0.984,0.761-1.269,1.267   C35.018,13.24,34.596,14.322,34.028,15.563z" fill="#3076BC"/><path d="M6.491,13.341c0.411,0.868,0.822,1.496,1.01,2.184c0.446,1.639,1.589,2.471,3.089,3.002   c0.621,0.22,1.204,0.544,1.991,0.907c-1.213,0.567-2.309,1.019-3.339,1.589c-0.459,0.254-0.895,0.687-1.149,1.146   c-0.564,1.018-1.006,2.104-1.591,3.362c-0.554-1.172-1.074-2.183-1.51-3.228c-0.288-0.69-0.738-1.117-1.423-1.4   c-1.013-0.419-1.995-0.915-3.17-1.462c1.252-0.586,2.369-1.06,3.433-1.63c0.407-0.218,0.803-0.6,1.02-1.005   C5.428,15.732,5.903,14.604,6.491,13.341z" fill="#3076BC"/></g></svg>